<svg xmlns="http://www.w3.org/2000/svg" xmlns:xlink="http://www.w3.org/1999/xlink" aria-hidden="true" role="img" class="iconify iconify--logos" width="410" height="404" viewBox="0 0 410 404">
  <path fill="#41D1FF" d="M399.641 59.524c-2.205-8.096-10.766-12.707-18.778-10.084L257.187 84.36a14.004 14.004 0 0 1-10.666-1.23L109.1 1.587C101.122-2.185 92.06 2.563 90.1 10.975L2.18 388.168c-2.248 9.648 6.832 18.143 16.43 15.377l124.777-35.992a14.007 14.007 0 0 1 10.49 1.205l137.768 64.77c7.97 3.747 17.06-1.004 19.02-9.42l88.976-365.584a14.02 14.02 0 0 0-.001-6z"/>
  <path fill="#fff" d="M287.68 54.09 207.1 237.2a14 14 0 0 0 .94 13.3l53.6 87.8c3.6 5.9 12.3 5.7 15.6-.3l80.4-148.7a14 14 0 0 0-.3-13.6l-58.4-98.4c-3.5-5.9-12.1-5.8-15.3.2z" opacity=".6"/>
  <path fill="#fff" d="M192.9 121.3 149.6 224.1a14 14 0 0 0 1 13.3l85.7 139.6c3.6 5.9 12.3 5.7 15.6-.3l27.6-50.9a14 14 0 0 0-.3-13.6l-70-117.9a14 14 0 0 1-.9-13.3l22.4-50.8c2.6-5.9-1.6-12.7-8-12.7h-25.2a14 14 0 0 0-12.6 8.8z" opacity=".6"/>
  <path fill="#fff" d="M171.6 121.5 90.1 302.8c-3.2 7.1 2.1 15 9.9 15h41.4a14 14 0 0 0 12.7-8.6l81.5-181.3c3.2-7.1-2.1-15-9.9-15h-41.4a14 14 0 0 0-12.7 8.6z"/>
</svg>
